<svg width="25" height="25" viewBox="0 0 25 25" fill="none" xmlns="http://www.w3.org/2000/svg">
<path d="M12.4999 2.08325C10.9021 2.08318 9.32563 2.45069 7.89256 3.15735C6.45948 3.864 5.20818 4.89086 4.23546 6.15849C3.26274 7.42611 2.59467 8.90052 2.28293 10.4676C1.9712 12.0348 2.02416 13.6526 2.43771 15.196C2.85127 16.7394 3.61433 18.1669 4.66787 19.3682C5.72141 20.5695 7.03719 21.5124 8.51341 22.1238C9.98963 22.7352 11.5867 22.9988 13.1811 22.8943C14.7755 22.7897 16.3245 22.3197 17.7082 21.5208C17.8327 21.4556 17.9427 21.366 18.0317 21.2573C18.1206 21.1485 18.1867 21.0229 18.2258 20.888C18.2649 20.7531 18.2764 20.6116 18.2595 20.4721C18.2425 20.3327 18.1975 20.1981 18.1272 20.0765C18.0569 19.9548 17.9627 19.8487 17.8503 19.7644C17.7379 19.6801 17.6097 19.6194 17.4732 19.586C17.3368 19.5526 17.1949 19.5471 17.0563 19.5699C16.9177 19.5927 16.7851 19.6433 16.6666 19.7187C15.0779 20.6359 13.2311 21.0032 11.4124 20.7639C9.59372 20.5245 7.90483 19.6917 6.60766 18.3947C5.31049 17.0977 4.47753 15.4089 4.23794 13.5902C3.99835 11.7715 4.36554 9.92465 5.28254 8.33593C6.19955 6.74722 7.61514 5.50546 9.30978 4.80324C11.0044 4.10102 12.8834 3.97757 14.6554 4.45204C16.4273 4.92652 17.9932 5.97239 19.1102 7.42748C20.2272 8.88257 20.8328 10.6655 20.8332 12.4999V13.2812C20.8332 13.7646 20.6412 14.2283 20.2993 14.5702C19.9574 14.912 19.4938 15.1041 19.0103 15.1041C18.5268 15.1041 18.0632 14.912 17.7213 14.5702C17.3794 14.2283 17.1874 13.7646 17.1874 13.2812V8.85409C17.1874 8.57782 17.0776 8.31287 16.8823 8.11752C16.6869 7.92217 16.422 7.81242 16.1457 7.81242C15.9035 7.80703 15.6669 7.88625 15.4768 8.03645C15.2867 8.18665 15.1549 8.39843 15.1041 8.63534C14.3383 8.10573 13.4309 7.81898 12.4999 7.81242C11.7157 7.80304 10.9417 7.99057 10.2487 8.35783C9.55577 8.72509 8.96604 9.26035 8.53354 9.91457C8.10105 10.5688 7.83961 11.3211 7.77318 12.1025C7.70675 12.884 7.83744 13.6696 8.15329 14.3874C8.46914 15.1053 8.96006 15.7324 9.58107 16.2114C10.2021 16.6903 10.9333 17.0058 11.7079 17.1289C12.4824 17.2521 13.2754 17.1789 14.0144 16.9162C14.7533 16.6534 15.4145 16.2094 15.9374 15.6249C16.4323 16.2659 17.1147 16.7367 17.8896 16.9718C18.6645 17.207 19.4935 17.1948 20.2611 16.937C21.0288 16.6792 21.6971 16.1886 22.173 15.5334C22.6489 14.8782 22.9088 14.0909 22.9166 13.2812V12.4999C22.9166 11.132 22.6471 9.77744 22.1236 8.51363C21.6002 7.24982 20.8329 6.1015 19.8656 5.13422C18.8983 4.16695 17.75 3.39966 16.4862 2.87617C15.2224 2.35269 13.8678 2.08325 12.4999 2.08325ZM12.4999 15.1041C11.9848 15.1041 11.4813 14.9514 11.0531 14.6652C10.6248 14.3791 10.2911 13.9723 10.094 13.4965C9.89685 13.0206 9.84528 12.497 9.94576 11.9919C10.0462 11.4867 10.2943 11.0227 10.6585 10.6585C11.0227 10.2943 11.4867 10.0463 11.9918 9.94579C12.497 9.84531 13.0206 9.89688 13.4965 10.094C13.9723 10.2911 14.379 10.6249 14.6652 11.0531C14.9513 11.4814 15.1041 11.9849 15.1041 12.4999C15.1041 13.1906 14.8297 13.853 14.3413 14.3413C13.8529 14.8297 13.1906 15.1041 12.4999 15.1041Z" fill="#0094FF"/>
</svg>
