<svg width="51" height="21" viewBox="0 0 51 21" fill="none" xmlns="http://www.w3.org/2000/svg">
<path d="M0 0H51V21H0V0Z" fill="#FAFAFA"/>
<path fill-rule="evenodd" clip-rule="evenodd" d="M49 2H2V19H49V2ZM0 0V21H51V0H0Z" fill="#FAFAFA"/>
<path d="M30.8159 7.81592L37.7919 11.9599L44.7679 7.81592V10.9999L37.7919 15.0319L30.8159 10.9839V7.81592Z" fill="#0094FF"/>
<path d="M10.1484 16V5.99219H15.7334V7.37305H11.7754V9.86816H15.7334V11.2969H11.7754V16H10.1484ZM19.1309 10.2578H19.4248C20.2861 10.2578 20.8581 10.1576 21.1406 9.95703C21.4232 9.75651 21.5645 9.40104 21.5645 8.89062C21.5645 8.33919 21.4118 7.95182 21.1064 7.72852C20.8057 7.50065 20.2451 7.38672 19.4248 7.38672H19.1309V10.2578ZM19.0283 11.5225V16H17.5039V5.99219H19.7734C20.4388 5.99219 20.9538 6.03548 21.3184 6.12207C21.6875 6.20866 22.002 6.35221 22.2617 6.55273C22.5716 6.79427 22.8109 7.10645 22.9795 7.48926C23.1481 7.87207 23.2324 8.29134 23.2324 8.74707C23.2324 9.54915 23.0387 10.1781 22.6514 10.6338C22.264 11.085 21.6921 11.3561 20.9355 11.4473L24.3809 16H22.542L19.2129 11.5225H19.0283Z" fill="#0094FF"/>
</svg>
