<svg width="51" height="21" viewBox="0 0 51 21" fill="none" xmlns="http://www.w3.org/2000/svg">
<path d="M0 0H51V21H0V0Z" fill="#FAFAFA"/>
<path fill-rule="evenodd" clip-rule="evenodd" d="M49 2H2V19H49V2ZM0 0V21H51V0H0Z" fill="#FAFAFA"/>
<path d="M26.2812 9.875C26.2969 10.1146 26.3073 10.349 26.3125 10.5781C26.3229 10.8073 26.3281 11.026 26.3281 11.2344C26.3281 12.9062 26.0547 14.1432 25.5078 14.9453C24.9661 15.7422 24.1302 16.1406 23 16.1406C21.8333 16.1406 20.9896 15.6875 20.4688 14.7812C19.9479 13.875 19.6875 12.3828 19.6875 10.3047C19.6875 8.20052 19.9479 6.69792 20.4688 5.79688C20.9948 4.89583 21.8542 4.44531 23.0469 4.44531C23.8906 4.44531 24.5703 4.64583 25.0859 5.04688C25.6016 5.44271 25.9557 6.04427 26.1484 6.85156L24.7891 7.50781C24.6797 6.95052 24.4818 6.53646 24.1953 6.26562C23.9089 5.99479 23.5312 5.85938 23.0625 5.85938C22.3958 5.85938 21.9245 6.17969 21.6484 6.82031C21.3776 7.45573 21.2422 8.60677 21.2422 10.2734C21.2422 11.9245 21.3776 13.0729 21.6484 13.7188C21.9245 14.3646 22.3958 14.6875 23.0625 14.6875C23.6562 14.6875 24.1016 14.4427 24.3984 13.9531C24.7005 13.4635 24.8516 12.7318 24.8516 11.7578C24.8516 11.612 24.849 11.5026 24.8438 11.4297C24.8438 11.3516 24.8411 11.2812 24.8359 11.2188H23.2031V9.875H26.2812Z" fill="#0094FF"/>
<path d="M12.1484 16V4.59375H13.5703L16.5938 12.5156V4.59375H18.0547V16H16.6094L13.6016 8.01562V16H12.1484Z" fill="#0094FF"/>
<path d="M5.97656 16V4.59375H10.5391V5.96875H7.51562V9.35938H10.2812V10.7188H7.51562V14.5781H10.5391V16H5.97656Z" fill="#0094FF"/>
<path d="M30.8161 7.81592L37.7921 11.9599L44.7681 7.81592V10.9999L37.7921 15.0319L30.8161 10.9839V7.81592Z" fill="#0094FF"/>
</svg>
