<svg width="28" height="28" viewBox="0 0 28 28" fill="none" xmlns="http://www.w3.org/2000/svg">
<path d="M28 14C28 21.732 21.732 28 14 28C6.26801 28 0 21.732 0 14C0 6.26801 6.26801 0 14 0C21.732 0 28 6.26801 28 14Z" fill="#050505"/>
<path d="M7.7978 7.02208C8.32429 6.5803 9.10923 6.64897 9.55101 7.17547L19.9499 19.5684C20.3917 20.0949 20.323 20.8798 19.7965 21.3216C19.27 21.7634 18.4851 21.6947 18.0433 21.1682L7.64441 8.77529C7.20263 8.2488 7.27131 7.46386 7.7978 7.02208Z" fill="#005E93"/>
<path d="M19.3198 7.24452C19.8463 7.6863 19.9149 8.47124 19.4732 8.99773L9.07428 21.3906C8.6325 21.9171 7.84756 21.9858 7.32107 21.544C6.79458 21.1022 6.72591 20.3173 7.16769 19.7908L17.5666 7.3979C18.0083 6.87141 18.7933 6.80274 19.3198 7.24452Z" fill="#005E93"/>
</svg>
