<svg width="329" height="83" viewBox="0 0 329 83" fill="none" xmlns="http://www.w3.org/2000/svg">
<path d="M29.0981 26.622L28.7654 38.4434C28.6042 40.3915 29.7713 42.6341 31.3952 43.4448L31.0266 44.1829L19.5121 38.4339L19.8806 37.6958C21.401 38.2705 22.6844 37.3252 22.8605 35.4951L23.1498 25.2381L18.3107 27.9121L16.1879 32.1636C15.3772 33.7875 16.0424 35.7794 17.6663 36.5902L17.2977 37.3283L5.48794 31.4318L5.85647 30.6937C7.48032 31.5045 9.47228 30.8392 10.283 29.2154L18.3907 12.9769C19.2015 11.353 18.5362 9.36108 16.9124 8.55031L17.2809 7.8122L29.0907 13.7087L28.7222 14.4468C27.0983 13.636 25.1064 14.3013 24.2956 15.9251L19.5932 25.3434L30.8205 19.1829C32.7532 18.1192 33.0032 16.5843 31.3794 15.7735L31.7479 15.0354L39.4243 18.8681L39.0558 19.6062C37.4024 18.7807 34.5247 19.0037 32.592 20.0674L29.3462 21.8402L29.0981 26.622Z" fill="black"/>
<path d="M53.8759 25.9767C53.5507 25.2783 53.4883 22.9436 53.4883 22.9436C53.4883 22.9436 51.8345 24.5928 51.1484 24.8873C50.4499 25.2125 48.1275 25.2443 48.1275 25.2443C48.1275 25.2443 49.7767 26.898 50.059 27.6148C50.3535 28.301 50.4282 30.6051 50.4282 30.6051C50.4282 30.6051 52.0696 28.9865 52.7865 28.7042C53.4849 28.3791 55.7889 28.3044 55.7889 28.3044C55.7889 28.3044 54.1581 26.6936 53.8759 25.9767ZM52.9052 33.3001L47.0421 47.9795C46.6993 48.8376 47.1043 49.7811 47.9624 50.1238L47.6563 50.89L39.2287 47.5239L39.5347 46.7577C40.3928 47.1005 41.3363 46.6955 41.679 45.8375L46.3304 34.192C46.6241 33.4565 46.1703 32.6356 45.398 32.4338L45.5692 31.6493L52.9052 33.3001Z" fill="black"/>
<path d="M70.3045 44.9906L72.9591 56.9591C73.1909 57.9685 73.693 58.8911 74.9403 59.3242L74.6892 60.1101L66.0133 57.3383L66.2643 56.5524C67.1231 56.7921 67.6898 56.211 67.458 55.2016L65.8655 48.0414C65.3792 48.371 64.8827 48.732 64.4064 49.0302L62.9 53.7454C62.6188 54.6256 63.0894 55.5381 63.9696 55.8193L63.7185 56.6052L55.074 53.8434L55.325 53.0575C56.2052 53.3387 57.1177 52.8681 57.3989 51.9879L63.9769 31.3982C64.2179 30.6437 63.7071 29.857 62.9226 29.7103L63.0379 28.9157L70.4722 30.0436L64.9186 47.427L72.12 42.4527C73.0513 41.8148 73.3879 41.1949 71.0504 40.3788L71.3015 39.5929L77.9656 41.722L77.7146 42.5079C76.007 41.997 74.3087 42.2165 73.3774 42.8544C72.5705 43.428 71.5048 44.1615 70.3045 44.9906Z" fill="black"/>
<path d="M94.3331 38.8716C93.9127 38.2261 93.5215 35.9235 93.5215 35.9235C93.5215 35.9235 92.117 37.7895 91.4792 38.1779C90.8337 38.5983 88.5389 38.9574 88.5389 38.9574C88.5389 38.9574 90.405 40.3619 90.7855 41.0318C91.1738 41.6695 91.5728 43.94 91.5728 43.94C91.5728 43.94 92.9696 42.1061 93.6394 41.7255C94.285 41.3051 96.5555 40.9061 96.5555 40.9061C96.5555 40.9061 94.7137 39.5415 94.3331 38.8716ZM94.4053 46.2587L90.6716 61.6184C90.4533 62.5163 90.9873 63.3932 91.8851 63.6115L91.6902 64.4131L82.872 62.2695L83.0669 61.4679C83.9648 61.6861 84.8417 61.1522 85.06 60.2543L88.022 48.0692C88.2091 47.2996 87.6439 46.5509 86.851 46.46L86.9098 45.6592L94.4053 46.2587Z" fill="black"/>
<path d="M109.702 45.3034C109.277 47.5067 107.337 49.72 103.405 50.2379L103.267 49.9088C105.548 49.4083 107.118 47.8964 107.56 46.3013C105.661 46.9093 103.65 45.1429 104.05 43.0692C104.344 41.5463 105.813 40.5529 107.336 40.8469C109.215 41.2099 110.121 43.1325 109.702 45.3034Z" fill="black"/>
<path d="M125.767 59.0869C128.567 60.5582 129.571 63.0221 129.253 65.4101C128.735 69.3027 124.442 70.7954 120.573 70.3471C117.396 69.9575 114.495 68.2398 114.174 65.4006C113.97 63.6758 115.285 62.053 116.927 62.4713C118.373 62.8635 118.873 64.3615 117.957 65.7377C116.95 67.3015 118.813 68.3151 120.841 68.585C122.444 68.7983 124.557 68.1807 124.766 66.6105C125.009 64.7787 122.203 63.6062 119.324 62.2243C116.445 60.8424 115.197 58.7122 115.537 56.1607C116.142 51.6138 120.289 50.9673 123.532 51.3656C126.644 51.7464 129.449 53.185 129.691 55.6142C129.866 57.3021 128.547 58.9575 126.909 58.5065C125.492 58.1514 124.959 56.649 125.875 55.2728C127.503 52.7929 120.207 52.0882 119.841 54.8359C119.684 56.0136 120.138 56.1072 125.767 59.0869Z" fill="black"/>
<path d="M162.787 47.1966L162.785 46.3716L175.985 46.331L175.987 47.156C174.172 47.1616 172.659 48.6512 172.698 50.4661L172.874 64.8207C172.924 70.3645 168.213 73.118 163.429 73.2318C158.644 73.3455 153.818 70.8523 153.803 65.9023C153.798 64.1204 154.684 62.5996 156.068 62.0674C158.936 61.0355 160.73 64.825 157.83 66.187C157.336 66.4195 156.809 66.9161 156.745 67.6093C156.366 73.0225 166.031 71.6398 166.009 64.7098C166.002 62.3338 166.098 50.4864 166.098 50.4864C166.092 48.6715 164.602 47.191 162.787 47.1966Z" fill="black"/>
<path d="M192.339 53.038C198.812 52.4388 202.36 56.7501 202.801 61.5147C203.242 66.2794 200.486 71.2405 194.013 71.8397C187.507 72.442 184.025 68.1246 183.584 63.3599C183.143 58.5953 185.833 53.6403 192.339 53.038ZM193.894 70.1937C196.917 69.9139 197.385 65.6616 197.044 61.9813C196.701 58.2682 195.481 54.4042 192.458 54.684C189.468 54.9608 188.976 58.9502 189.316 62.6305C189.66 66.3436 190.871 70.4736 193.894 70.1937Z" fill="black"/>
<path d="M231.481 65.1995L231.628 66.0114L222.697 67.6223L222.55 66.8104C223.46 66.6464 224.045 65.8031 223.881 64.8937L223.67 63.7246C223.67 63.7246 221.728 68.1995 217.733 68.92C214.388 69.5234 213.403 67.2198 213.104 65.5635L211.065 54.2619C210.925 53.4825 210.105 53.0268 209.343 53.2648L209.072 52.5088L216.169 50.0216L218.6 63.4991C218.746 64.311 219.66 64.9174 220.732 64.7241C222.323 64.437 223.277 62.2866 223.377 62.1008L221.62 52.358C221.479 51.5786 220.659 51.1229 219.898 51.3609L219.627 50.605L226.723 48.1178L229.564 63.8686C229.728 64.7779 230.572 65.3635 231.481 65.1995Z" fill="black"/>
<path d="M249.31 43.008C251.849 43.7022 252.408 47.7529 249.887 48.4192C248.356 48.8241 247.14 47.7119 247.18 45.9263C247.188 43.5009 244.812 47.1669 243.668 50.2L246.241 59.9307C246.477 60.824 247.364 61.3403 248.257 61.1042L248.468 61.9018L239.695 64.2213L239.484 63.4237C240.377 63.1875 240.893 62.3001 240.657 61.4068L237.452 49.2833C237.25 48.5176 236.396 48.1289 235.656 48.427L235.326 47.6951L242.2 44.6487L243.035 47.8072C244.294 44.9487 246.402 42.2068 249.31 43.008Z" fill="black"/>
<path d="M270.153 35.7319C273.359 34.6033 274.809 37.0318 275.126 37.9345L279.213 49.5452C279.52 50.4167 280.446 50.8605 281.318 50.5537L281.592 51.3319L273.031 54.3451L272.757 53.5669C273.629 53.2601 274.073 52.3343 273.766 51.4627L270.03 40.8481C269.756 40.0699 268.757 39.6169 267.729 39.9785C266.204 40.5154 265.605 42.7903 265.536 42.9897L269.097 53.1063C269.404 53.9778 270.329 54.4216 271.201 54.1148L271.475 54.893L262.915 57.9062L262.641 57.128C263.512 56.8212 263.956 55.8953 263.649 55.0238L259.486 43.1952C259.234 42.4793 258.529 42.1675 257.627 42.4853L257.239 41.782L263.848 38.196L264.988 41.4333C264.988 41.4333 266.324 37.0797 270.153 35.7319Z" fill="black"/>
<path d="M305.759 36.4366L305.936 36.4288C306.528 39.4206 305.713 41.3826 303.037 42.5925C301.173 43.4354 299.205 42.7678 298.009 41.2442C297.338 43.6844 296.258 45.6213 294.033 46.6274C291.266 47.8781 288.979 47.0651 287.851 44.5693C285.771 39.9687 292.857 36.2577 294.816 34.5028L293.797 32.2476C291.472 27.1057 285.588 30.6717 288.147 33.2085C288.403 33.4549 288.649 33.5974 288.845 33.8709C289.515 34.8718 289.255 36.2204 288.254 36.8903C287.497 37.3776 286.478 37.3674 285.742 36.9398C285.193 36.6083 284.542 35.8887 284.388 34.9079C283.66 30.493 289.98 26.3681 294.913 27.1072C297.013 27.4255 298.624 28.9063 299.698 31.2818L301.982 36.3334C303.926 40.6334 305.686 38.6787 305.759 36.4366ZM295.983 42.45C296.467 42.1587 296.974 41.2776 297.359 40.1258L295.306 35.5853C293.25 37.9272 291.998 39.7245 292.678 41.228C293.317 42.6413 294.591 43.2966 295.983 42.45Z" fill="black"/>
<path d="M322.285 31.3814L322.676 32.1079L314.685 36.4095L314.294 35.6831C315.107 35.2451 315.403 34.2617 314.965 33.4481L304.719 14.4158C304.343 13.7184 303.423 13.5395 302.772 14.0021L302.28 13.3673L308.255 8.8017L320.05 30.7107C320.488 31.5243 321.471 31.8194 322.285 31.3814Z" fill="black"/>
</svg>
