<svg width="22" height="16" viewBox="0 0 22 16" fill="none" xmlns="http://www.w3.org/2000/svg">
<path d="M19.936 6.94531H1.32907C0.595048 6.94531 0 7.38953 0 7.93749C0 8.48545 0.595048 8.92967 1.32907 8.92967H19.936C20.67 8.92967 21.2651 8.48545 21.2651 7.93749C21.2651 7.38953 20.67 6.94531 19.936 6.94531Z" fill="#0094FF"/>
<path d="M1.32907 4.29954H19.936C20.67 4.29954 21.2651 3.85532 21.2651 3.30736C21.2651 2.7594 20.67 2.31519 19.936 2.31519H1.32907C0.595048 2.31519 0 2.7594 0 3.30736C0 3.85532 0.595048 4.29954 1.32907 4.29954Z" fill="#0094FF"/>
<path d="M19.936 11.5754H1.32907C0.595048 11.5754 0 12.0197 0 12.5676C0 13.1156 0.595048 13.5598 1.32907 13.5598H19.936C20.67 13.5598 21.2651 13.1156 21.2651 12.5676C21.2651 12.0197 20.67 11.5754 19.936 11.5754Z" fill="#0094FF"/>
</svg>
